# xmcd
#
# Track frame offsets:
#	150
#	23053
#	49648
#	69240
#	90643
#	110553
#	131383
#	157118
#	179008
#	199410
#
# Disc length: 2951 seconds
#
# Revision: 2
# Processed by: cddbd v1.5.2PL0 Copyright (c) Steve Scherf et al.
# Submitted via: EZCDAudioConverter 8.0.2.1
#
DISCID=870b850a
DTITLE=Various Artist - st. Trịnh Công Sơn
DYEAR=1999
DGENRE=
TTITLE0=Khánh Ly - Diễm xưa
TTITLE1=Ý Lan - Xin mặt trời ngủ yên
TTITLE2=Sỹ Phú - Rừng xưa đã khép
TTITLE3=Thái Hiền - Phôi pha
TTITLE4=Họa Mi - Bên đời hiu quạnh
TTITLE5=Như Mai - Đêm thấy ta là thác đổ
TTITLE6=Khánh Ly - Nắng thủy tinh
TTITLE7=Anh Tú - Một ngày như mọi ngày
TTITLE8=Thanh Tuyền - Thương ai
TTITLE9=Thanh Tuyền - Có điều gì gần như là tuyệt vọng
EXTD=
EXTT0=
EXTT1=
EXTT2=
EXTT3=
EXTT4=
EXTT5=
EXTT6=
EXTT7=
EXTT8=
EXTT9=
PLAYORDER=
